<?xml version="1.0" encoding="iso-8859-1"?>
<!-- Generator: Adobe Illustrator 19.0.0, SVG Export Plug-In . SVG Version: 6.00 Build 0)  -->
<svg version="1.1" id="Capa_1" xmlns="http://www.w3.org/2000/svg" xmlns:xlink="http://www.w3.org/1999/xlink" x="0px" y="0px"
	 viewBox="0 0 512 512" style="enable-background:new 0 0 512 512;" xml:space="preserve">
<circle style="fill:#2B72A3;" cx="256" cy="256" r="256"/>
<g>
	<circle style="fill:#4279BD;" cx="256" cy="256" r="199.346"/>
	<rect x="215.959" y="222.281" style="fill:#4279BD;" width="174.498" height="22.545"/>
</g>
<path style="fill:#995936;" d="M256,512c73.503,0,139.76-30.987,186.449-80.599V125.681c0-6.896-5.642-12.539-12.539-12.539H146.791
	c-6.896,0-12.539,5.642-12.539,12.539v355.567C170.462,500.86,211.929,512,256,512z"/>
<path style="fill:#A36841;" d="M134.253,125.681v355.567c5.841,3.164,11.825,6.097,17.928,8.809h207.638
	c18.331-8.143,35.524-18.377,51.284-30.398V113.143H146.791C139.895,113.143,134.253,118.785,134.253,125.681z"/>
<path style="fill:#D3EEF4;" d="M396.56,459.727H180.144c-5.272,0-9.585-4.313-9.585-9.585V157.237c0-5.272,4.313-9.585,9.585-9.585
	H396.56c5.272,0,9.585,4.313,9.585,9.585v292.905C406.143,455.414,401.831,459.727,396.56,459.727z"/>
<path style="fill:#FFFFFF;" d="M180.144,147.652c-5.272,0-9.585,4.313-9.585,9.585v278.528h202.039c5.272,0,9.585-4.313,9.585-9.585
	V147.652L180.144,147.652L180.144,147.652z"/>
<path style="fill:#8596A0;" d="M335.069,94.253h-12.311c-0.402-9.773-8.498-17.649-18.366-17.649h-32.082
	c-9.868,0-17.964,7.875-18.366,17.649h-12.312c-7.35,0-13.363,6.013-13.363,13.363v37.478c0,7.35,6.013,13.363,13.363,13.363h93.437
	c7.35,0,13.363-6.013,13.363-13.363v-37.478C348.433,100.266,342.419,94.253,335.069,94.253z M299.39,108.721h-22.079
	c-6.966,0-12.666-5.7-12.666-12.666c0-6.966,5.7-12.666,12.666-12.666h22.079c6.966,0,12.666,5.7,12.666,12.666
	C312.057,103.021,306.358,108.721,299.39,108.721z"/>
<path style="fill:#93A5B2;" d="M228.537,147.742c0.857,0.174,1.741,0.267,2.647,0.267h93.437c7.35,0,13.363-6.013,13.363-13.363
	V97.167c0-0.906-0.093-1.791-0.268-2.647c-0.019-0.004-0.038-0.005-0.056-0.008c-0.411-0.082-0.827-0.147-1.249-0.19
	c-0.442-0.045-0.889-0.068-1.343-0.068h-12.31c-0.073-1.786-0.41-3.507-0.961-5.129c-0.563-1.491-1.382-2.861-2.501-4.311
	l0.176-0.284c-3.327-4.777-8.846-7.924-15.079-7.924h-32.082c-9.868,0-17.964,7.875-18.366,17.649h-12.312
	c-7.35,0-13.363,6.013-13.363,13.363v37.478c0,0.452,0.024,0.901,0.068,1.343C228.383,146.879,228.45,147.314,228.537,147.742z
	 M277.312,83.387h22.079c6.966,0,12.666,5.7,12.666,12.666c0,6.966-5.7,12.666-12.666,12.666h-22.079
	c-6.966,0-12.666-5.7-12.666-12.666C264.645,89.087,270.345,83.387,277.312,83.387z"/>
<g>
	<path style="fill:#57646E;" d="M371.52,204.005H205.182c-2.542,0-4.603-2.061-4.603-4.603v-1.497c0-2.542,2.061-4.603,4.603-4.603
		h166.338c2.542,0,4.603,2.061,4.603,4.603v1.497C376.122,201.944,374.062,204.005,371.52,204.005z"/>
	<path style="fill:#57646E;" d="M371.52,221.768H205.182c-2.542,0-4.603-2.061-4.603-4.603v-1.497c0-2.542,2.061-4.603,4.603-4.603
		h166.338c2.542,0,4.603,2.061,4.603,4.603v1.497C376.122,219.708,374.062,221.768,371.52,221.768z"/>
</g>
<g>
	<path style="fill:#EE4042;" d="M239.592,271.293l8.77-8.77c1.299-1.299,1.299-3.425,0-4.724c-1.299-1.299-3.425-1.299-4.724,0
		l-8.77,8.77l-8.77-8.77c-1.299-1.299-3.425-1.299-4.724,0s-1.299,3.425,0,4.724l8.77,8.77l-8.77,8.77
		c-1.299,1.299-1.299,3.425,0,4.724s3.425,1.299,4.724,0l8.77-8.77l8.77,8.77c1.299,1.299,3.425,1.299,4.724,0
		c1.299-1.299,1.299-3.425,0-4.724L239.592,271.293z"/>
	<path style="fill:#EE4042;" d="M275.295,271.293l8.77-8.77c1.299-1.299,1.299-3.425,0-4.724s-3.425-1.299-4.724,0l-8.77,8.77
		l-8.77-8.77c-1.299-1.299-3.425-1.299-4.724,0c-1.299,1.299-1.299,3.425,0,4.724l8.77,8.77l-8.77,8.77
		c-1.299,1.299-1.299,3.425,0,4.724c1.299,1.299,3.425,1.299,4.724,0l8.77-8.77l8.77,8.77c1.299,1.299,3.425,1.299,4.724,0
		c1.299-1.299,1.299-3.425,0-4.724L275.295,271.293z"/>
	<path style="fill:#EE4042;" d="M257.443,312.809l8.77-8.77c1.299-1.299,1.299-3.425,0-4.724s-3.425-1.299-4.724,0l-8.77,8.77
		l-8.77-8.77c-1.299-1.299-3.425-1.299-4.724,0c-1.299,1.299-1.299,3.425,0,4.724l8.77,8.77l-8.77,8.77
		c-1.299,1.299-1.299,3.425,0,4.724c1.299,1.299,3.425,1.299,4.724,0l8.77-8.77l8.77,8.77c1.299,1.299,3.425,1.299,4.724,0
		s1.299-3.425,0-4.724L257.443,312.809z"/>
	<path style="fill:#EE4042;" d="M222.985,312.809l8.77-8.77c1.299-1.299,1.299-3.425,0-4.724c-1.299-1.299-3.425-1.299-4.724,0
		l-8.77,8.77l-8.77-8.77c-1.299-1.299-3.425-1.299-4.724,0c-1.299,1.299-1.299,3.425,0,4.724l8.77,8.77l-8.77,8.77
		c-1.299,1.299-1.299,3.425,0,4.724c1.299,1.299,3.425,1.299,4.724,0l8.77-8.77l8.77,8.77c1.299,1.299,3.425,1.299,4.724,0
		c1.299-1.299,1.299-3.425,0-4.724L222.985,312.809z"/>
	<path style="fill:#EE4042;" d="M291.901,312.809l8.77-8.77c1.299-1.299,1.299-3.425,0-4.724c-1.299-1.299-3.425-1.299-4.724,0
		l-8.77,8.77l-8.77-8.77c-1.299-1.299-3.425-1.299-4.724,0c-1.299,1.299-1.299,3.425,0,4.724l8.77,8.77l-8.77,8.77
		c-1.299,1.299-1.299,3.425,0,4.724c1.299,1.299,3.425,1.299,4.724,0l8.77-8.77l8.77,8.77c1.299,1.299,3.425,1.299,4.724,0
		s1.299-3.425,0-4.724L291.901,312.809z"/>
</g>
<g>
	<path style="fill:#0980B7;" d="M265.546,360.479c-9.132,0-16.536,7.403-16.536,16.536s7.403,16.536,16.536,16.536
		c9.132,0,16.536-7.403,16.536-16.536C282.082,367.882,274.679,360.479,265.546,360.479z M265.546,387.532
		c-5.809,0-10.517-4.708-10.517-10.517c0-5.809,4.708-10.517,10.517-10.517s10.517,4.708,10.517,10.517
		C276.063,382.823,271.355,387.532,265.546,387.532z"/>
	<path style="fill:#0980B7;" d="M307.342,360.479c-9.132,0-16.536,7.403-16.536,16.536s7.403,16.536,16.536,16.536
		s16.536-7.403,16.536-16.536C323.878,367.882,316.475,360.479,307.342,360.479z M307.342,387.532
		c-5.809,0-10.517-4.708-10.517-10.517c0-5.809,4.708-10.517,10.517-10.517c5.809,0,10.517,4.708,10.517,10.517
		C317.859,382.823,313.151,387.532,307.342,387.532z"/>
	<path style="fill:#0980B7;" d="M349.138,360.479c-9.132,0-16.536,7.403-16.536,16.536s7.403,16.536,16.536,16.536
		c9.132,0,16.536-7.403,16.536-16.536C365.674,367.882,358.27,360.479,349.138,360.479z M349.138,387.532
		c-5.809,0-10.517-4.708-10.517-10.517c0-5.809,4.708-10.517,10.517-10.517c5.809,0,10.517,4.708,10.517,10.517
		C359.655,382.823,354.947,387.532,349.138,387.532z"/>
</g>
<g>
	<path style="fill:#7A8D9D;" d="M352.839,348.515c-0.115,0-0.231-0.007-0.348-0.022c-1.43-0.191-2.435-1.505-2.244-2.935
		c3.362-25.213-2.843-48.237-18.442-68.429c-11.711-15.157-24.621-22.944-24.752-23.021c-1.238-0.738-1.646-2.34-0.908-3.58
		c0.736-1.24,2.335-1.649,3.578-0.911c0.556,0.329,13.77,8.272,26.089,24.155c11.398,14.694,24.053,39.196,19.615,72.476
		C355.25,347.561,354.128,348.515,352.839,348.515z"/>
	<path style="fill:#7A8D9D;" d="M304.47,265.914c-1.061,0-1.969-0.804-2.077-1.881c-0.324-3.213-5.954-11.484-9.426-15.944
		c-0.442-0.567-0.561-1.323-0.315-1.999c0.246-0.676,0.823-1.178,1.527-1.328c0.102-0.022,10.277-2.219,15.353-5.376
		c0.978-0.609,2.268-0.309,2.878,0.672c0.609,0.98,0.309,2.268-0.672,2.878c-3.84,2.388-9.877,4.199-13.545,5.157
		c2.901,3.984,7.945,11.424,8.359,15.523c0.115,1.148-0.721,2.172-1.87,2.288C304.61,265.911,304.539,265.914,304.47,265.914z"/>
</g>
<g>
</g>
<g>
</g>
<g>
</g>
<g>
</g>
<g>
</g>
<g>
</g>
<g>
</g>
<g>
</g>
<g>
</g>
<g>
</g>
<g>
</g>
<g>
</g>
<g>
</g>
<g>
</g>
<g>
</g>
</svg>
