<?xml version="1.0" encoding="iso-8859-1"?>
<!-- Generator: Adobe Illustrator 19.0.0, SVG Export Plug-In . SVG Version: 6.00 Build 0)  -->
<svg version="1.1" id="Capa_1" xmlns="http://www.w3.org/2000/svg" xmlns:xlink="http://www.w3.org/1999/xlink" x="0px" y="0px"
	 viewBox="0 0 512 512" style="enable-background:new 0 0 512 512;" xml:space="preserve">
<circle style="fill:#E54325;" cx="256" cy="256" r="256"/>
<circle style="fill:#ED4C37;" cx="256.167" cy="219.857" r="177.957"/>
<path style="fill:#F4A20F;" d="M431.811,69.932c-14.506-13.711-30.61-25.748-48.011-35.794H128.2
	c-17.11,9.877-32.963,21.686-47.28,35.113v66.401h350.891V69.932z"/>
<path style="fill:#FFCA3E;" d="M412.352,53.298l-154.059,141.8L102.15,51.38c-27.222,20.5-50.216,46.306-67.457,75.88
	l218.263,200.896l4.895,5.319l0.441-0.406l0.441,0.406l4.895-5.319l215.261-198.134C462.007,100.211,439.315,74.127,412.352,53.298z
	"/>
<g>
	<path style="fill:#FFE36E;" d="M87.464,63.317l170.894,156.126L424.173,62.995c-3.017-2.631-6.098-5.191-9.237-7.68L258.228,203.17
		L96.703,55.604C93.563,58.105,90.482,60.674,87.464,63.317z"/>
	<path style="fill:#FFE36E;" d="M44.402,111.886c-2.271,3.328-4.464,6.712-6.579,10.15L258.259,324.93l218.906-197.91
		c-2.043-3.494-4.163-6.936-6.364-10.323L258.33,308.79L44.402,111.886z"/>
</g>
<circle style="fill:#ABB4B7;" cx="259.365" cy="410.948" r="79.214"/>
<path style="fill:#BCC8CE;" d="M259.367,331.736c2.791,0,5.547,0.148,8.263,0.43c22.16,15.006,36.726,40.381,36.726,69.16
	c0,43.161-32.762,78.668-74.773,83.015c-28.98-11.773-49.425-40.19-49.425-73.397C180.159,367.199,215.622,331.736,259.367,331.736z
	"/>
<circle style="fill:#9DA7AA;" cx="259.365" cy="410.948" r="67.767"/>
<circle style="fill:#CCD4D6;" cx="259.365" cy="410.948" r="59.554"/>
<path style="fill:#D9E0E2;" d="M259.367,351.391c11.949,0,23.067,3.533,32.393,9.591c2.015,6.903,3.115,14.194,3.115,21.747
	c0,40.104-30.459,73.094-69.506,77.1c-15.443-10.76-25.556-28.636-25.556-48.884C199.814,378.053,226.476,351.391,259.367,351.391z"
	/>
<path style="fill:#9DA7AA;" d="M258.444,341.486L258.444,341.486c-3.905,0-7.099-3.194-7.099-7.099v-21.298
	c0-3.905,3.194-7.099,7.099-7.099l0,0c3.905,0,7.099,3.194,7.099,7.099v21.298C265.543,338.291,262.349,341.486,258.444,341.486z"/>
<path style="fill:#FCB216;" d="M383.8,34.139H128.2c-2.314,1.336-4.6,2.718-6.867,4.123c21.055,44.362,81.761,75.867,135.884,75.867
	c53.648,0,113.759-30.955,135.315-74.704C389.657,37.61,386.75,35.841,383.8,34.139z"/>
<path style="fill:#FFFFFF;" d="M202.606,355.598l-3.229,12.224c-0.25,0.948-0.99,1.688-1.937,1.937l-12.224,3.229
	c-2.703,0.714-2.703,4.552,0,5.265l12.224,3.229c0.948,0.25,1.688,0.99,1.937,1.937l3.229,12.224c0.714,2.703,4.552,2.703,5.265,0
	l3.229-12.224c0.25-0.948,0.99-1.688,1.937-1.937l12.224-3.229c2.703-0.714,2.703-4.552,0-5.265l-12.224-3.229
	c-0.948-0.25-1.688-0.99-1.937-1.937l-3.229-12.224C207.156,352.894,203.319,352.894,202.606,355.598z"/>
<path style="fill:#F0F6F7;" d="M310.319,432.361l-2.224,8.42c-0.172,0.652-0.682,1.162-1.334,1.334l-8.42,2.224
	c-1.862,0.492-1.862,3.135,0,3.627l8.42,2.224c0.652,0.172,1.162,0.682,1.334,1.334l2.224,8.42c0.492,1.862,3.135,1.862,3.627,0
	l2.224-8.42c0.172-0.652,0.682-1.162,1.334-1.334l8.42-2.224c1.862-0.492,1.862-3.135,0-3.627l-8.42-2.224
	c-0.652-0.172-1.162-0.682-1.334-1.334l-2.224-8.42C313.454,430.499,310.81,430.499,310.319,432.361z"/>
<g>
</g>
<g>
</g>
<g>
</g>
<g>
</g>
<g>
</g>
<g>
</g>
<g>
</g>
<g>
</g>
<g>
</g>
<g>
</g>
<g>
</g>
<g>
</g>
<g>
</g>
<g>
</g>
<g>
</g>
</svg>
