<?xml version="1.0" encoding="iso-8859-1"?>
<!-- Generator: Adobe Illustrator 19.0.0, SVG Export Plug-In . SVG Version: 6.00 Build 0)  -->
<svg version="1.1" id="Capa_1" xmlns="http://www.w3.org/2000/svg" xmlns:xlink="http://www.w3.org/1999/xlink" x="0px" y="0px"
	 viewBox="0 0 512 512" style="enable-background:new 0 0 512 512;" xml:space="preserve">
<circle style="fill:#B3D83D;" cx="256" cy="256" r="256"/>
<path style="fill:#4BC4E0;" d="M30.399,134.92h451.202C438.405,54.604,353.583,0,256,0S73.595,54.604,30.399,134.92z"/>
<path style="fill:#2D76B2;" d="M265.92,305.199L328.21,10.344c-7.096-2.082-14.317-3.872-21.654-5.342l-62.444,295.589
	L265.92,305.199z"/>
<path style="fill:#97A1A5;" d="M288.377,197.266l-21.997-4.602c-4.076-0.853-8.108,1.785-8.961,5.861l-15.879,75.916
	c-47.692-23.757-130.773-54.944-144.46-54.266c-68.879,3.411-81.132,126.734,2.489,129.65c29.2,1.019,87.744,2.31,116.871,0
	c35.652-2.829,54.355-27.25,57.023-44.271l20.777-99.327C295.091,202.152,292.453,198.119,288.377,197.266z"/>
<path style="fill:#ABBAC3;" d="M208.473,336.87c35.652-2.829,54.355-27.25,57.023-44.271l20.064-95.922l-19.18-4.012
	c-4.076-0.853-8.108,1.785-8.961,5.861l-15.879,75.916c-47.692-23.757-130.773-54.944-144.46-54.266
	c-46.283,2.291-66.999,58.725-50.239,96.39c9.555,11.637,24.274,19.59,44.763,20.304C120.803,337.889,179.347,339.18,208.473,336.87
	z"/>
<path style="fill:#70828E;" d="M107.179,350.074c29.352,0.908,77.514,1.784,105.187,0.036v-89.25
	c-38.331-16.875-83.924-33.846-105.187-39.066V350.074z"/>
<path style="fill:#7A8D9D;" d="M208.473,336.87c1.324-0.104,2.616-0.249,3.893-0.412v-75.597
	c-38.331-17.348-83.924-33.7-105.187-39.066v115.556C138.344,338.204,183.888,338.821,208.473,336.87z"/>
<g>
	<path style="fill:#70828E;" d="M199.396,280.346H120.15c-2.371,0-4.31-1.939-4.31-4.31l0,0c0-2.371,1.939-4.31,4.31-4.31h79.246
		c2.371,0,4.31,1.939,4.31,4.31l0,0C203.706,278.407,201.767,280.346,199.396,280.346z"/>
	<path style="fill:#70828E;" d="M176.029,264.15H120.15c-2.371,0-4.31-1.939-4.31-4.31l0,0c0-2.371,1.939-4.31,4.31-4.31h55.879
		c2.371,0,4.31,1.939,4.31,4.31l0,0C180.339,262.211,178.4,264.15,176.029,264.15z"/>
	<path style="fill:#70828E;" d="M199.396,296.542H120.15c-2.371,0-4.31-1.939-4.31-4.31l0,0c0-2.371,1.939-4.31,4.31-4.31h79.246
		c2.371,0,4.31,1.939,4.31,4.31l0,0C203.706,294.603,201.767,296.542,199.396,296.542z"/>
	<path style="fill:#70828E;" d="M199.396,312.738H120.15c-2.371,0-4.31-1.939-4.31-4.31l0,0c0-2.371,1.939-4.31,4.31-4.31h79.246
		c2.371,0,4.31,1.939,4.31,4.31l0,0C203.706,310.799,201.767,312.738,199.396,312.738z"/>
	<path style="fill:#70828E;" d="M199.396,328.934H120.15c-2.371,0-4.31-1.939-4.31-4.31l0,0c0-2.371,1.939-4.31,4.31-4.31h79.246
		c2.371,0,4.31,1.939,4.31,4.31l0,0C203.706,326.995,201.767,328.934,199.396,328.934z"/>
</g>
<circle style="fill:#DFF3F7;" cx="325.224" cy="377.187" r="69.939"/>
<path style="fill:#FFFFFF;" d="M325.226,307.25c-38.627,0-69.939,31.313-69.939,69.939c0,14.444,4.38,27.863,11.883,39.007
	c11.865,9.268,26.784,14.806,43.006,14.806c38.627,0,69.939-31.313,69.939-69.939c0-14.444-4.38-27.864-11.883-39.007
	C356.367,312.788,341.448,307.25,325.226,307.25z"/>
<g>
	<circle style="fill:#D3EEF4;" cx="285.038" cy="351.483" r="8.879"/>
	<circle style="fill:#D3EEF4;" cx="311.547" cy="324.848" r="8.879"/>
	<circle style="fill:#D3EEF4;" cx="279.374" cy="383.164" r="8.879"/>
	<circle style="fill:#D3EEF4;" cx="320.428" cy="355.924" r="8.879"/>
	<circle style="fill:#D3EEF4;" cx="316.343" cy="386.069" r="8.879"/>
	<circle style="fill:#D3EEF4;" cx="288.256" cy="414.845" r="8.879"/>
	<circle style="fill:#D3EEF4;" cx="347.188" cy="333.73" r="8.879"/>
	<circle style="fill:#D3EEF4;" cx="352.695" cy="367.125" r="8.879"/>
	<circle style="fill:#D3EEF4;" cx="342.81" cy="401.481" r="8.879"/>
</g>
<g>
</g>
<g>
</g>
<g>
</g>
<g>
</g>
<g>
</g>
<g>
</g>
<g>
</g>
<g>
</g>
<g>
</g>
<g>
</g>
<g>
</g>
<g>
</g>
<g>
</g>
<g>
</g>
<g>
</g>
</svg>
