<?xml version="1.0" encoding="iso-8859-1"?>
<!-- Generator: Adobe Illustrator 19.0.0, SVG Export Plug-In . SVG Version: 6.00 Build 0)  -->
<svg version="1.1" id="Capa_1" xmlns="http://www.w3.org/2000/svg" xmlns:xlink="http://www.w3.org/1999/xlink" x="0px" y="0px"
	 viewBox="0 0 512 512" style="enable-background:new 0 0 512 512;" xml:space="preserve">
<g>
	<g>
		<path d="M398.555,213.333c-27.447,0-49.778-22.331-49.778-49.778C348.778,73.371,275.407,0,185.222,0
			S21.667,73.371,21.667,163.556L21,334.223V448c0,20.034,15.701,36.333,35,36.333h57V497c0,8.284,6.716,15,15,15s15-6.716,15-15
			v-12.667h226V497c0,8.284,6.716,15,15,15s15-6.716,15-15v-12.667h57c19.299,0,35-16.299,35-36.333V334.223v-28.445
			C491,254.804,449.531,213.333,398.555,213.333z M461,448c0,3.433-2.29,6.333-5,6.333H56c-2.71,0-5-2.9-5-6.333v-92.444h62v34.611
			c0,8.284,6.716,15,15,15s15-6.716,15-15v-34.611h55.333v34.611c0,8.284,6.716,15,15,15s15-6.716,15-15v-34.611h55.333v34.611
			c0,8.284,6.716,15,15,15s15-6.716,15-15v-34.611H369v34.611c0,8.284,6.716,15,15,15s15-6.716,15-15v-34.611h62V448z"/>
	</g>
</g>
<g>
</g>
<g>
</g>
<g>
</g>
<g>
</g>
<g>
</g>
<g>
</g>
<g>
</g>
<g>
</g>
<g>
</g>
<g>
</g>
<g>
</g>
<g>
</g>
<g>
</g>
<g>
</g>
<g>
</g>
</svg>
