<?xml version="1.0" encoding="iso-8859-1"?>
<!-- Generator: Adobe Illustrator 19.0.0, SVG Export Plug-In . SVG Version: 6.00 Build 0)  -->
<svg version="1.1" id="Capa_1" xmlns="http://www.w3.org/2000/svg" xmlns:xlink="http://www.w3.org/1999/xlink" x="0px" y="0px"
	 viewBox="0 0 503.775 503.775" style="enable-background:new 0 0 503.775 503.775;" xml:space="preserve">
<circle style="fill:#EE4042;" cx="251.888" cy="251.888" r="251.888"/>
<circle style="fill:#E5333C;" cx="251.888" cy="210.763" r="175.098"/>
<path style="fill:#F78F1E;" d="M241.96,444.788h21.999c6.139,0,11.162-5.023,11.162-11.162V289.761
	c0-6.139-5.023-11.162-11.162-11.162H241.96c-6.139,0-11.162,5.023-11.162,11.162v143.865
	C230.798,439.766,235.821,444.788,241.96,444.788z"/>
<path style="fill:#ED7E11;" d="M260.582,444.788h6.375c4.341,0,7.893-3.552,7.893-7.893V286.492c0-4.341-3.552-7.893-7.893-7.893
	h-6.375c-4.341,0-7.893,3.552-7.893,7.893v150.404C252.689,441.237,256.241,444.788,260.582,444.788z"/>
<polygon style="fill:#FCB216;" points="179.929,444.788 325.09,444.788 274.85,421.954 230.527,421.954 "/>
<polygon style="fill:#F2A216;" points="274.85,421.954 325.09,444.788 302.472,444.788 252.232,421.954 "/>
<path style="fill:#F99D28;" d="M252.689,358.899L252.689,358.899c24.027,0,41.22-19.786,43.687-43.686
	c1.017-9.852,8.089-38.786,8.089-38.786c0-2.696-2.205-4.9-4.9-4.9h-93.749c-2.696,0-4.9,2.205-4.9,4.9
	c0,0,7.072,28.933,8.089,38.786C211.469,339.113,228.661,358.899,252.689,358.899z"/>
<path style="fill:#FEBF3F;" d="M230.939,426.989h43.908c4.527,0,8.23-3.703,8.23-8.23l0,0c0-4.527-3.703-8.23-8.23-8.23h-43.908
	c-4.527,0-8.23,3.703-8.23,8.23l0,0C222.709,423.286,226.412,426.989,230.939,426.989z"/>
<path style="fill:#F9B438;" d="M271.766,418.76c0-4.527-3.703-8.23-8.23-8.23h11.309c4.527,0,8.23,3.703,8.23,8.23
	s-3.703,8.23-8.23,8.23h-11.309C268.063,426.989,271.766,423.286,271.766,418.76z"/>
<path style="fill:#F99D28;" d="M253.095,358.899L253.095,358.899c24.027,0,41.22-19.786,43.687-43.686
	c1.017-9.852,8.089-38.786,8.089-38.786c0-2.696-2.205-4.9-4.9-4.9h-93.749c-2.696,0-4.9,2.205-4.9,4.9
	c0,0,7.072,28.933,8.089,38.786C211.874,339.113,229.068,358.899,253.095,358.899z"/>
<path style="fill:#F28A19;" d="M275.813,315.212c1.017-9.852,8.089-38.786,8.089-38.786c0-2.696-2.205-4.901-4.9-4.901h20.562
	c2.696,0,4.9,2.205,4.9,4.901c0,0-7.072,28.933-8.089,38.786c-2.465,23.901-19.659,43.686-43.686,43.686l0,0
	c-3.59,0-7.023-0.45-10.281-1.281C260.959,352.886,273.715,335.542,275.813,315.212z"/>
<path style="fill:#FEBF3F;" d="M176.96,470.308H328.06c7.756,0,14.103-6.347,14.103-14.103l0,0c0-7.756-6.347-14.103-14.103-14.103
	H176.96c-7.756,0-14.103,6.347-14.103,14.103l0,0C162.856,463.962,169.203,470.308,176.96,470.308z"/>
<path style="fill:#F9B438;" d="M307.207,456.205L307.207,456.205c0-7.756-6.347-14.103-14.103-14.103h34.956
	c7.756,0,14.103,6.347,14.103,14.103l0,0c0,7.756-6.347,14.103-14.103,14.103h-34.956
	C300.861,470.308,307.207,463.962,307.207,456.205z"/>
<path style="fill:#F99D28;" d="M286.661,107.47v138.093c0,10.851,8.878,19.727,19.727,19.727h65.062
	c51.017,0,92.759-41.741,92.759-92.759v-65.062c0-10.851-8.878-19.727-19.727-19.727H306.39
	C295.539,87.742,286.661,96.62,286.661,107.47z M306.39,122.813c0-8.439,6.905-15.344,15.344-15.344h107.406
	c8.439,0,15.344,6.905,15.344,15.344v50.604c0,39.68-32.466,72.146-72.146,72.146h-50.604c-8.439,0-15.344-6.905-15.344-15.344
	V122.813z"/>
<path style="fill:#FFCE61;" d="M198.63,87.742H60.536c-10.85,0-19.727,8.878-19.727,19.727v65.062
	c0,51.018,41.741,92.759,92.759,92.759h65.062c10.85,0,19.727-8.878,19.727-19.727V107.47
	C218.358,96.62,209.48,87.742,198.63,87.742z M198.63,230.22c0,8.439-6.905,15.344-15.344,15.344h-50.604
	c-39.68,0-72.146-32.466-72.146-72.146v-50.604c0-8.439,6.905-15.344,15.344-15.344h107.406c8.439,0,15.344,6.905,15.344,15.344
	L198.63,230.22L198.63,230.22z"/>
<g>
	<circle style="fill:#FCB216;" cx="248.783" cy="165.177" r="65.496"/>
	<circle style="fill:#FCB216;" cx="248.783" cy="165.177" r="65.496"/>
	<path style="fill:#FCB216;" d="M246.137,335.254h14.049c61.542,0,113.034-46.712,119.009-107.963L396.652,48.36
		c1.289-13.21-9.093-24.654-22.366-24.654H132.037c-13.273,0-23.655,11.444-22.366,24.654l17.456,178.931
		C133.105,288.542,184.596,335.254,246.137,335.254z"/>
</g>
<path style="fill:#F9A40D;" d="M337.47,218.726c0,0,12.213-194.392,12.225-195.02h23.99c13.273,0,23.655,11.444,22.366,24.654
	l-17.456,178.931c-5.975,61.251-57.467,107.963-119.009,107.963h-14.049c-4.667,0-9.276-0.272-13.811-0.796
	C287.256,327.823,331.929,280.024,337.47,218.726z"/>
<circle style="fill:#FFA124;" cx="253.07" cy="170.317" r="98.174"/>
<path style="fill:#F79508;" d="M283.252,77.089c39.108,12.933,67.33,49.78,67.33,93.224s-28.222,80.292-67.33,93.224
	c-39.108-12.933-67.33-49.78-67.33-93.224S244.143,90.02,283.252,77.089z"/>
<circle style="fill:#FCB216;" cx="253.07" cy="170.317" r="74.59"/>
<path style="fill:#FFCE61;" d="M286.856,201.395l0.768-77.013c0.017-1.713-1.357-3.114-3.07-3.132l-25.705-0.256v0.011
	l-15.866,8.951c-1.492,0.841-2.018,2.733-1.177,4.225l7.437,13.185c0.841,1.492,2.733,2.018,4.225,1.177l0.458-0.258
	c2.079-1.173,4.648,0.344,4.624,2.732l-0.5,50.094c-0.017,1.713-1.419,3.086-3.132,3.07l0,0c-1.713-0.017-3.114,1.357-3.132,3.07
	l-0.115,11.564c-0.017,1.713,1.357,3.114,3.07,3.132l35.006,0.35c1.713,0.017,3.114-1.357,3.132-3.07l0.115-11.564
	c0.017-1.713-1.357-3.114-3.07-3.132l0,0C288.213,204.509,286.839,203.108,286.856,201.395z"/>
<path style="fill:#FFD580;" d="M282.598,219.222l0.115-11.564c0.017-1.713-1.357-3.114-3.07-3.132
	c-1.713-0.017-3.086-1.419-3.07-3.132l0.768-77.013c0.017-1.713-1.357-3.114-3.07-3.132l-15.583-0.155l-15.706,8.86
	c-1.492,0.841-2.018,2.733-1.177,4.225l7.437,13.185c0.841,1.492,2.733,2.018,4.225,1.177l0.458-0.258
	c2.079-1.173,4.648,0.344,4.624,2.732l-0.5,50.094c-0.017,1.713-1.419,3.086-3.132,3.07c-1.713-0.017-3.114,1.357-3.132,3.07
	l-0.115,11.564c-0.017,1.713,1.357,3.114,3.07,3.132l25.479,0.254C281.571,221.873,282.584,220.674,282.598,219.222z"/>
<path style="fill:#FFCE61;" d="M232.747,151.683l-2.611-0.036l0.099-7.111l2.611,0.036c2.504,0.035,4.582-1.986,4.616-4.491
	c0.035-2.504-1.986-4.581-4.49-4.616l-2.611-0.036l0.036-2.611c0.035-2.504-1.986-4.581-4.49-4.616
	c-2.504-0.035-4.582,1.985-4.616,4.49l-0.036,2.611l-7.111-0.099l0.036-2.611c0.035-2.504-1.986-4.581-4.49-4.616
	c-2.504-0.035-4.582,1.985-4.616,4.49l-0.036,2.611l-2.611-0.036c-2.504-0.035-4.582,1.986-4.616,4.49
	c-0.035,2.504,1.986,4.582,4.49,4.617l2.611,0.036l-0.099,7.111l-2.611-0.036c-2.504-0.035-4.582,1.985-4.616,4.49
	c-0.035,2.504,1.986,4.582,4.49,4.617l2.611,0.036l-0.036,2.61c-0.035,2.504,1.986,4.582,4.49,4.617
	c2.504,0.035,4.582-1.986,4.616-4.491l0.036-2.61l7.111,0.099l-0.036,2.61c-0.035,2.504,1.986,4.582,4.49,4.617
	c2.504,0.035,4.582-1.986,4.616-4.491l0.036-2.61l2.611,0.036c2.504,0.035,4.582-1.986,4.616-4.491
	C237.272,153.794,235.252,151.718,232.747,151.683z M213.917,151.421l0.099-7.111l7.111,0.099l-0.099,7.111L213.917,151.421z"/>
<path style="fill:#FFD580;" d="M221.291,132.69l-0.036,2.611l-7.111-0.099l0.036-2.611c0.035-2.504-1.986-4.581-4.49-4.616
	c-2.504-0.035-4.582,1.985-4.616,4.49l-0.036,2.611l-2.611-0.036c-2.504-0.035-4.582,1.985-4.616,4.49
	c-0.035,2.504,1.986,4.582,4.49,4.617l2.611,0.036l-0.099,7.111l-2.611-0.036c-2.504-0.035-4.582,1.986-4.616,4.49
	c-0.035,2.504,1.986,4.582,4.49,4.616l2.611,0.036l-0.013,0.98c12.831-1.155,22.889-11.932,22.889-25.063
	c0-2.833-0.475-5.555-1.339-8.097c-0.104-0.008-0.208-0.019-0.314-0.021C223.403,128.166,221.325,130.186,221.291,132.69z
	 M221.029,151.52l-7.111-0.099l0.099-7.111l7.111,0.099L221.029,151.52z"/>
<g>
	<path style="fill:#FFFFFF;" d="M155.73,43.28l-3.45,13.066c-0.267,1.013-1.058,1.803-2.071,2.071l-13.066,3.45
		c-2.89,0.763-2.89,4.865,0,5.628l13.066,3.45c1.013,0.267,1.803,1.058,2.071,2.071l3.45,13.066c0.763,2.89,4.865,2.89,5.628,0
		l3.45-13.066c0.267-1.013,1.058-1.803,2.071-2.071l13.065-3.45c2.89-0.763,2.89-4.865,0-5.628l-13.065-3.45
		c-1.013-0.267-1.803-1.058-2.071-2.071l-3.45-13.066C160.594,40.39,156.493,40.39,155.73,43.28z"/>
	<path style="fill:#FFFFFF;" d="M352.633,271.178l-2.377,9c-0.184,0.697-0.729,1.242-1.426,1.426l-9,2.377
		c-1.99,0.525-1.99,3.351,0,3.876l9,2.377c0.697,0.184,1.242,0.729,1.426,1.426l2.377,9c0.525,1.99,3.351,1.99,3.876,0l2.377-9
		c0.184-0.697,0.729-1.242,1.426-1.426l9-2.377c1.99-0.525,1.99-3.351,0-3.876l-9-2.377c-0.697-0.184-1.242-0.729-1.426-1.426
		l-2.377-9C355.984,269.188,353.159,269.188,352.633,271.178z"/>
</g>
<g>
</g>
<g>
</g>
<g>
</g>
<g>
</g>
<g>
</g>
<g>
</g>
<g>
</g>
<g>
</g>
<g>
</g>
<g>
</g>
<g>
</g>
<g>
</g>
<g>
</g>
<g>
</g>
<g>
</g>
</svg>
