<?xml version="1.0" encoding="iso-8859-1"?>
<!-- Generator: Adobe Illustrator 19.0.0, SVG Export Plug-In . SVG Version: 6.00 Build 0)  -->
<svg version="1.1" id="Capa_1" xmlns="http://www.w3.org/2000/svg" xmlns:xlink="http://www.w3.org/1999/xlink" x="0px" y="0px"
	 viewBox="0 0 512 512" style="enable-background:new 0 0 512 512;" xml:space="preserve">
<circle style="fill:#02BFE2;" cx="256" cy="256" r="256"/>
<circle style="fill:#07CBE5;" cx="256" cy="235.102" r="184.895"/>
<path style="fill:#F2634A;" d="M261.729,135.882v-32.855c0-6.595-5.396-11.991-11.991-11.991H139.727
	c-6.595,0-11.991,5.396-11.991,11.991v32.855c-14.24,8.241-23.88,23.639-23.88,41.188v217.773c0,8.756,7.164,15.92,15.92,15.92
	h149.914c8.756,0,15.92-7.164,15.92-15.92V177.069C285.609,159.519,275.969,144.123,261.729,135.882z"/>
<path style="fill:#F47851;" d="M263.666,394.842V177.069c0-17.549-9.64-32.947-23.88-41.188v-32.855
	c0-6.595-5.396-11.991-11.991-11.991h-88.068c-6.595,0-11.991,5.396-11.991,11.991v32.855c-14.24,8.241-23.88,23.639-23.88,41.188
	v217.773c0,8.756,7.164,15.92,15.92,15.92h127.971C256.503,410.762,263.666,403.598,263.666,394.842z"/>
<path style="fill:#FEE9AB;" d="M248.915,110.955H137.897c-7.048,0-12.815-5.767-12.815-12.815v-9.049
	c0-7.048,5.767-12.815,12.815-12.815h111.018c7.048,0,12.815,5.767,12.815,12.815v9.049
	C261.729,105.189,255.962,110.955,248.915,110.955z"/>
<path style="fill:#FAFFDC;" d="M228.726,110.955H136.86c-6.477,0-11.777-5.3-11.777-11.777V88.055c0-6.477,5.3-11.777,11.777-11.777
	h91.866c6.477,0,11.777,5.3,11.777,11.777v11.123C240.503,105.655,235.203,110.955,228.726,110.955z"/>
<path style="fill:#FED767;" d="M261.401,112.426h-51.083c-6.018,0-10.942-4.924-10.942-10.942l0,0
	c0-6.018,4.924-10.942,10.942-10.942h51.083c6.018,0,10.942,4.924,10.942,10.942l0,0
	C272.342,107.502,267.419,112.426,261.401,112.426z"/>
<path style="fill:#FFE36E;" d="M220.274,112.426h-94.863c-6.018,0-10.942-4.924-10.942-10.942l0,0
	c0-6.018,4.924-10.942,10.942-10.942h94.863c6.018,0,10.942,4.924,10.942,10.942l0,0
	C231.216,107.502,226.292,112.426,220.274,112.426z"/>
<rect x="103.852" y="181.812" style="fill:#FEE7A3;" width="181.75" height="158.824"/>
<rect x="103.852" y="181.812" style="fill:#FFF2D2;" width="159.462" height="158.824"/>
<path style="fill:#FEE9AB;" d="M226.074,404.47l60.502-36.875c10.62-6.473,24.605-3.08,31.077,7.54l0,0
	c6.473,10.62,3.08,24.605-7.54,31.077l-60.502,36.876c-10.62,6.473-24.605,3.08-31.077-7.54l0,0
	C212.061,424.928,215.454,410.942,226.074,404.47z"/>
<path style="fill:#FBFFE1;" d="M301.581,392.188c8.143-4.963,12.015-14.34,10.472-23.232c-7.198-5.467-17.323-6.332-25.477-1.363
	l-60.502,36.877c-8.143,4.963-12.015,14.34-10.472,23.232c7.198,5.467,17.323,6.332,25.477,1.363L301.581,392.188z"/>
<path style="fill:#FCB216;" d="M280.506,424.257l29.607-18.045c10.62-6.473,14.013-20.458,7.54-31.077s-20.458-14.013-31.077-7.54
	l-29.607,18.045L280.506,424.257z"/>
<path style="fill:#FEBF3F;" d="M256.969,385.639l14.994,24.601l29.618-18.053c8.143-4.963,12.015-14.34,10.472-23.232
	c-0.418-0.318-0.848-0.616-1.285-0.902c-0.07-0.046-0.141-0.091-0.211-0.137c-1.775-1.135-3.694-2.008-5.692-2.612
	c-0.162-0.048-0.323-0.097-0.486-0.142c-0.414-0.115-0.831-0.22-1.25-0.312c-0.2-0.043-0.4-0.077-0.601-0.116
	c-0.684-0.131-1.374-0.227-2.068-0.295c-0.276-0.026-0.551-0.063-0.829-0.079c-0.323-0.02-0.648-0.019-0.972-0.025
	c-0.339-0.005-0.676-0.009-1.016,0c-0.303,0.008-0.607,0.024-0.91,0.044c-0.391,0.027-0.781,0.067-1.171,0.114
	c-0.254,0.03-0.509,0.055-0.763,0.094c-0.627,0.097-1.252,0.218-1.874,0.37c-0.159,0.039-0.316,0.091-0.474,0.134
	c-0.495,0.133-0.988,0.28-1.479,0.448c-0.216,0.074-0.43,0.156-0.645,0.237c-0.45,0.17-0.897,0.357-1.34,0.558
	c-0.193,0.088-0.389,0.172-0.58,0.266c-0.62,0.303-1.234,0.628-1.835,0.994L256.969,385.639z"/>
<path style="fill:#FEE9AB;" d="M292.994,404.162l70.775-3.326c12.424-0.584,23.065,9.103,23.649,21.527l0,0
	c0.584,12.424-9.103,23.065-21.527,23.649l-70.776,3.326c-12.424,0.584-23.065-9.103-23.649-21.527l0,0
	C270.884,415.389,280.571,404.746,292.994,404.162z"/>
<path style="fill:#FBFFE1;" d="M365.134,429.615c9.525-0.447,17.423-6.817,20.335-15.359c-3.693-8.251-12.161-13.867-21.699-13.419
	l-70.775,3.326c-9.525,0.447-17.423,6.817-20.335,15.359c3.693,8.251,12.161,13.867,21.699,13.419L365.134,429.615z"/>
<path style="fill:#FCB216;" d="M331.258,447.641l34.635-1.628c12.424-0.584,22.11-11.226,21.527-23.649s-11.226-22.11-23.649-21.527
	l-34.635,1.628L331.258,447.641z"/>
<path style="fill:#FEBF3F;" d="M329.134,402.464l1.352,28.779l34.648-1.628c9.525-0.447,17.423-6.817,20.335-15.359
	c-0.214-0.48-0.448-0.948-0.695-1.409c-0.04-0.074-0.079-0.147-0.12-0.222c-1.012-1.847-2.277-3.535-3.74-5.023
	c-0.118-0.12-0.236-0.24-0.357-0.358c-0.308-0.3-0.623-0.591-0.947-0.874c-0.155-0.134-0.315-0.26-0.472-0.39
	c-0.537-0.443-1.096-0.858-1.673-1.251c-0.23-0.156-0.453-0.32-0.689-0.467c-0.274-0.172-0.559-0.328-0.841-0.488
	c-0.294-0.167-0.589-0.332-0.891-0.487c-0.27-0.138-0.543-0.271-0.819-0.398c-0.355-0.164-0.717-0.317-1.083-0.462
	c-0.238-0.095-0.473-0.196-0.715-0.283c-0.597-0.215-1.203-0.41-1.821-0.575c-0.158-0.042-0.321-0.071-0.48-0.11
	c-0.498-0.121-1.002-0.229-1.512-0.317c-0.225-0.039-0.452-0.07-0.679-0.101c-0.476-0.067-0.958-0.117-1.443-0.153
	c-0.212-0.016-0.423-0.036-0.636-0.045c-0.69-0.031-1.383-0.041-2.087-0.008L329.134,402.464z"/>
<circle style="fill:#F99D28;" cx="192.742" cy="261.893" r="64.303"/>
<circle style="fill:#FEBF3F;" cx="192.742" cy="261.893" r="57.158"/>
<circle style="fill:#FCB216;" cx="192.742" cy="261.893" r="51.799"/>
<path style="fill:#FEBF3F;" d="M208.041,252.93l24.353-24.353c-1.627-1.934-3.394-3.746-5.283-5.424l-24.978,24.978
	c-2.088,2.088-5.658,0.609-5.658-2.344v-35.543c-1.234-0.088-2.475-0.148-3.732-0.148c-1.293,0-2.569,0.064-3.839,0.157v35.67
	c0,2.953-3.57,4.431-5.658,2.344l-25-25c-1.884,1.683-3.646,3.501-5.266,5.441l24.224,24.224c2.088,2.088,0.609,5.658-2.344,5.658
	H141.06c-0.069,1.094-0.116,2.194-0.116,3.306c0,1.438,0.074,2.858,0.189,4.265h34.97c2.953,0,4.431,3.57,2.344,5.658
	l-24.444,24.444c1.677,1.89,3.49,3.656,5.424,5.283l23.82-23.819c2.088-2.088,5.658-0.609,5.658,2.344v33.467
	c1.269,0.093,2.546,0.157,3.839,0.157c1.257,0,2.498-0.061,3.732-0.148v-33.341c0-2.953,3.57-4.431,5.658-2.344l23.798,23.798
	c1.94-1.621,3.757-3.382,5.442-5.266l-24.574-24.574c-2.088-2.088-0.609-5.658,2.344-5.658h35.211
	c0.115-1.409,0.189-2.827,0.189-4.265c0-1.112-0.047-2.212-0.116-3.306h-34.041C207.432,258.588,205.954,255.018,208.041,252.93z"/>
<g>
</g>
<g>
</g>
<g>
</g>
<g>
</g>
<g>
</g>
<g>
</g>
<g>
</g>
<g>
</g>
<g>
</g>
<g>
</g>
<g>
</g>
<g>
</g>
<g>
</g>
<g>
</g>
<g>
</g>
</svg>
